
 #######                            #######                      
 #       ###### ###### #            #       #####  ###### ###### 
 #       #      #      #            #       #    # #      #      
 #####   #####  #####  #      ##### #####   #    # #####  #####  
 #       #      #      #            #       #####  #      #      
 #       #      #      #            #       #   #  #      #      
 #       ###### ###### ######       #       #    # ###### ###### 

Genre:Drama
Language:English
IMDb: 
http://www.imdb.com/title/tt0935075/
Source:DVD9 R5/AUDIO:STUDIO AUDIO
Subtitles:Romana


Format : MPEG-4
Format profile : Base Media
Codec ID : isom
File size : 857 MiB
Duration : 1h 27mn
Overall bit rate : 1 373 Kbps
Movie name : Rabbit Hole 2010 R5 X264 Feel-Free


Video
Format settings, CABAC : Yes
Format settings, ReFrames : 4 frames
Codec ID : avc1
Codec ID/Info : Advanced Video Coding
Duration : 1h 27mn
Bit rate mode : Variable
Bit rate : 986 Kbps
Width : 720 pixels
Height : 384 pixels
Display aspect ratio : 1.875
Frame rate mode : Constant
Frame rate : 25.000 fps
Color space : YUV
Chroma subsampling : 4:2:0
Bit depth : 8 bits
Scan type : Progressive
Bits/(Pixel*Frame) : 0.143
Stream size : 613 MiB (72%)
Writing library : x264 

Audio
ID : 2
Format : AAC
Format/Info : Advanced Audio Codec
Format version : Version 4
Format profile : LC
Codec ID : 40
Duration : 1h 27mn
Bit rate mode : Variable
Bit rate : 384 Kbps
Channel(s) : 6 channels
Channel positions : Front: L C R, Side: L R, LFE
Sampling rate : 48.0 KHz
Stream size : 240 MiB (28%)


Plot:
Life for a happy couple is turned upside down after their young son dies in an accident. Based on a play by David Lindsay-Abaire


Greets:

INK,CRYS,IMAGINE,LKRG,FXG,3Li,FLAWL3SS,TA,iLLUSiON,ViSiON,LU,TheFalcon007,MYSTiC,PrisM,Noir,WBZ,LAP,Rx,Kingdom,SAFCuk009+Fabreezy,HDLiTE,TWiZTED,ExtraTorrentRG.ELEKTRI4KA,MAGNAT,CM8
And to all the other p2p grps past and present






================================== 
http://thepiratebay.org/user/hiest
==================================






Screen Shots:
 
http://www.postimg.com/30000/29125.jpg
 
http://www.postimg.com/30000/29126.jpg
 
http://www.postimg.com/30000/29127.jpg
 
http://www.postimg.com/30000/29129.jpg
 
http://www.postimg.com/30000/29130.jpg


 #######                            #######                      
 #       ###### ###### #            #       #####  ###### ###### 
 #       #      #      #            #       #    # #      #      
 #####   #####  #####  #      ##### #####   #    # #####  #####  
 #       #      #      #            #       #####  #      #      
 #       #      #      #            #       #   #  #      #      
 #       ###### ###### ######       #       #    # ###### ###### 
